REM DIRINDEX 1\2,1\3,1\4,1\5
REM DIRNAME folder01,folder02,folder03,folder04,folder05
TITLE ""
FILE "CD2Track10.mp3" MP3
  TRACK 01 AUDIO
    TITLE "5:cjc154_2406"
    INDEX 01 00:00:00
  TRACK 02 AUDIO
    TITLE "0:"
    INDEX 01 00:01:36
  TRACK 03 AUDIO
    TITLE "2:cjc154_2407"
    INDEX 01 00:02:43
  TRACK 04 AUDIO
    TITLE "3:cjc154_2408"
    INDEX 01 00:04:58
  TRACK 05 AUDIO
    TITLE "2:cjc154_2409"
    INDEX 01 00:07:07
  TRACK 06 AUDIO
    TITLE "3:cjc154_2410"
    INDEX 01 00:09:10
  TRACK 07 AUDIO
    TITLE "2:cjc154_2411"
    INDEX 01 00:11:19
  TRACK 08 AUDIO
    TITLE "3:cjc154_2412"
    INDEX 01 00:13:00
  TRACK 09 AUDIO
    TITLE "2:cjc154_2413"
    INDEX 01 00:14:62
  TRACK 10 AUDIO
    TITLE "3:cjc154_2414"
    INDEX 01 00:16:08
  TRACK 11 AUDIO
    TITLE "2:cjc154_2415"
    INDEX 01 00:17:41
  TRACK 12 AUDIO
    TITLE "3:cjc154_2416"
    INDEX 01 00:18:74
  TRACK 13 AUDIO
    TITLE "2:cjc154_2417"
    INDEX 01 00:20:41
  TRACK 14 AUDIO
    TITLE "3:cjc154_2418"
    INDEX 01 00:22:36
  TRACK 15 AUDIO
    TITLE "2:cjc154_2419"
    INDEX 01 00:24:41
  TRACK 16 AUDIO
    TITLE "3:cjc154_2420"
    INDEX 01 00:26:60
  TRACK 17 AUDIO
    TITLE "2:cjc154_2421"
    INDEX 01 00:29:11
  TRACK 18 AUDIO
    TITLE "3:cjc154_2422"
    INDEX 01 00:31:37
  TRACK 19 AUDIO
    TITLE "2:cjc154_2423"
    INDEX 01 00:33:71
  TRACK 20 AUDIO
    TITLE "3:cjc154_2424"
    INDEX 01 00:35:63
  TRACK 21 AUDIO
    TITLE "2:cjc154_2425"
    INDEX 01 00:37:61
  TRACK 22 AUDIO
    TITLE "3:cjc154_2426"
    INDEX 01 00:39:51
  TRACK 23 AUDIO
    TITLE "2:cjc154_2427"
    INDEX 01 00:41:45
  TRACK 24 AUDIO
    TITLE "3:cjc154_2428"
    INDEX 01 00:43:48
  TRACK 25 AUDIO
    TITLE "2:cjc154_2429"
    INDEX 01 00:45:59
  TRACK 26 AUDIO
    TITLE "3:cjc154_2430"
    INDEX 01 00:46:60
  TRACK 27 AUDIO
    TITLE "2:cjc154_2431"
    INDEX 01 00:48:00
  TRACK 28 AUDIO
    TITLE "3:cjc154_2432"
    INDEX 01 00:49:55
  TRACK 29 AUDIO
    TITLE "2:cjc154_2433"
    INDEX 01 00:51:48
  TRACK 30 AUDIO
    TITLE "3:cjc154_2434"
    INDEX 01 00:53:19
  TRACK 31 AUDIO
    TITLE "2:cjc154_2435"
    INDEX 01 00:54:74
  TRACK 32 AUDIO
    TITLE "3:cjc154_2436"
    INDEX 01 00:57:05
  TRACK 33 AUDIO
    TITLE "2:cjc154_2437"
    INDEX 01 00:59:22
  TRACK 34 AUDIO
    TITLE "3:cjc154_2438"
    INDEX 01 01:01:50
  TRACK 35 AUDIO
    TITLE "2:cjc154_2439"
    INDEX 01 01:04:15
  TRACK 36 AUDIO
    TITLE "3:cjc154_2440"
    INDEX 01 01:05:73
  TRACK 37 AUDIO
    TITLE "2:cjc154_2441"
    INDEX 01 01:07:64
  TRACK 38 AUDIO
    TITLE "3:cjc154_2442"
    INDEX 01 01:09:67
  TRACK 39 AUDIO
    TITLE "2:cjc154_2443"
    INDEX 01 01:12:03
  TRACK 40 AUDIO
    TITLE "3:cjc154_2444"
    INDEX 01 01:13:32
  TRACK 41 AUDIO
    TITLE "2:cjc154_2445"
    INDEX 01 01:14:66
  TRACK 42 AUDIO
    TITLE "3:cjc154_2446"
    INDEX 01 01:18:07
  TRACK 43 AUDIO
    TITLE "2:cjc154_2447"
    INDEX 01 01:21:27
  TRACK 44 AUDIO
    TITLE "3:cjc154_2448"
    INDEX 01 01:22:60
  TRACK 45 AUDIO
    TITLE "2:cjc154_2449"
    INDEX 01 01:24:30
  TRACK 46 AUDIO
    TITLE "3:cjc154_2450"
    INDEX 01 01:26:21
  TRACK 47 AUDIO
    TITLE "2:cjc154_2451"
    INDEX 01 01:28:24
  TRACK 48 AUDIO
    TITLE "3:cjc154_2452"
    INDEX 01 01:30:22
  TRACK 49 AUDIO
    TITLE "2:cjc154_2453"
    INDEX 01 01:32:31
  TRACK 50 AUDIO
    TITLE "3:cjc154_2454"
    INDEX 01 01:34:06
  TRACK 51 AUDIO
    TITLE "2:cjc154_2455"
    INDEX 01 01:35:61
  TRACK 52 AUDIO
    TITLE "3:cjc154_2456"
    INDEX 01 01:37:34
  TRACK 53 AUDIO
    TITLE "2:cjc154_2457"
    INDEX 01 01:39:15
  TRACK 54 AUDIO
    TITLE "3:cjc154_2458"
    INDEX 01 01:40:62
  TRACK 55 AUDIO
    TITLE "2:cjc154_2459"
    INDEX 01 01:42:43
  TRACK 56 AUDIO
    TITLE "3:cjc154_2460"
    INDEX 01 01:44:17
  TRACK 57 AUDIO
    TITLE "2:cjc154_2461"
    INDEX 01 01:45:69
  TRACK 58 AUDIO
    TITLE "3:cjc154_2462"
    INDEX 01 01:47:15
  TRACK 59 AUDIO
    TITLE "2:cjc154_2463"
    INDEX 01 01:48:46
  TRACK 60 AUDIO
    TITLE "3:cjc154_2464"
    INDEX 01 01:50:60
  TRACK 61 AUDIO
    TITLE "2:cjc154_2465"
    INDEX 01 01:53:14
  TRACK 62 AUDIO
    TITLE "3:cjc154_2466"
    INDEX 01 01:55:28
  TRACK 63 AUDIO
    TITLE "2:cjc154_2467"
    INDEX 01 01:57:49
  TRACK 64 AUDIO
    TITLE "3:cjc154_2468"
    INDEX 01 01:58:60
  TRACK 65 AUDIO
    TITLE "2:cjc154_2469"
    INDEX 01 02:00:06
  TRACK 66 AUDIO
    TITLE "3:cjc154_2470"
    INDEX 01 02:02:03
  TRACK 67 AUDIO
    TITLE "2:cjc154_2471"
    INDEX 01 02:04:06
  TRACK 68 AUDIO
    TITLE "3:cjc154_2472"
    INDEX 01 02:04:74
  TRACK 69 AUDIO
    TITLE "2:cjc154_2473"
    INDEX 01 02:05:72
  TRACK 70 AUDIO
    TITLE "3:cjc154_2474"
    INDEX 01 02:08:33
  TRACK 71 AUDIO
    TITLE "2:cjc154_2475"
    INDEX 01 02:11:04
  TRACK 72 AUDIO
    TITLE "3:cjc154_2476"
    INDEX 01 02:12:48
  TRACK 73 AUDIO
    TITLE "2:cjc154_2477"
    INDEX 01 02:14:20
  TRACK 74 AUDIO
    TITLE "3:cjc154_2478"
    INDEX 01 02:16:42
  TRACK 75 AUDIO
    TITLE "2:cjc154_2479"
    INDEX 01 02:18:65
  TRACK 76 AUDIO
    TITLE "3:cjc154_2480"
    INDEX 01 02:20:28
  TRACK 77 AUDIO
    TITLE "2:cjc154_2481"
    INDEX 01 02:21:73
  TRACK 78 AUDIO
    TITLE "3:cjc154_2482"
    INDEX 01 02:23:21
  TRACK 79 AUDIO
    TITLE "2:cjc154_2483"
    INDEX 01 02:24:46
  TRACK 80 AUDIO
    TITLE "3:cjc154_2484"
    INDEX 01 02:25:51
  TRACK 81 AUDIO
    TITLE "2:cjc154_2485"
    INDEX 01 02:26:64
  TRACK 82 AUDIO
    TITLE "3:cjc154_2486"
    INDEX 01 02:29:19
  TRACK 83 AUDIO
    TITLE "2:cjc154_2487"
    INDEX 01 02:31:50
  TRACK 84 AUDIO
    TITLE "3:cjc154_2488"
    INDEX 01 02:33:72
  TRACK 85 AUDIO
    TITLE "2:cjc154_2489"
    INDEX 01 02:36:31
  TRACK 86 AUDIO
    TITLE "3:cjc154_2490"
    INDEX 01 02:38:06
  TRACK 87 AUDIO
    TITLE "2:cjc154_2491"
    INDEX 01 02:39:69
  TRACK 88 AUDIO
    TITLE "3:cjc154_2492"
    INDEX 01 02:42:55
  TRACK 89 AUDIO
    TITLE "2:cjc154_2493"
    INDEX 01 02:45:46
  TRACK 90 AUDIO
    TITLE "3:cjc154_2494"
    INDEX 01 02:47:19
  TRACK 91 AUDIO
    TITLE "2:cjc154_2495"
    INDEX 01 02:48:66
  TRACK 92 AUDIO
    TITLE "3:cjc154_2496"
    INDEX 01 02:50:06
  TRACK 93 AUDIO
    TITLE "2:cjc154_2497"
    INDEX 01 02:51:23
  TRACK 94 AUDIO
    TITLE "3:cjc154_2498"
    INDEX 01 02:53:04
  TRACK 95 AUDIO
    TITLE "2:cjc154_2499"
    INDEX 01 02:54:74
  TRACK 96 AUDIO
    TITLE "3:cjc154_2500"
    INDEX 01 02:56:30
  TRACK 97 AUDIO
    TITLE "2:cjc154_2501"
    INDEX 01 02:57:70
  TRACK 98 AUDIO
    TITLE "3:cjc154_2502"
    INDEX 01 02:59:62
  TRACK 99 AUDIO
    TITLE "2:cjc154_2503"
    INDEX 01 03:01:60
  TRACK 100 AUDIO
    TITLE "3:cjc154_2504"
    INDEX 01 03:03:50
  TRACK 101 AUDIO
    TITLE "2:cjc154_2505"
    INDEX 01 03:05:45
  TRACK 102 AUDIO
    TITLE "3:cjc154_2506"
    INDEX 01 03:07:06
  TRACK 103 AUDIO
    TITLE "2:cjc154_2507"
    INDEX 01 03:08:60
  TRACK 104 AUDIO
    TITLE "3:cjc154_2508"
    INDEX 01 03:11:29
  TRACK 105 AUDIO
    TITLE "2:cjc154_2509"
    INDEX 01 03:14:14
  TRACK 106 AUDIO
    TITLE "3:cjc154_2510"
    INDEX 01 03:15:74
  TRACK 107 AUDIO
    TITLE "2:cjc154_2511"
    INDEX 01 03:17:67
  TRACK 108 AUDIO
    TITLE "3:cjc154_2512"
    INDEX 01 03:19:21
  TRACK 109 AUDIO
    TITLE "2:cjc154_2513"
    INDEX 01 03:20:56
  TRACK 110 AUDIO
    TITLE "3:cjc154_2514"
    INDEX 01 03:22:31
  TRACK 111 AUDIO
    TITLE "2:cjc154_2515"
    INDEX 01 03:24:20
  TRACK 112 AUDIO
    TITLE "3:cjc154_2516"
    INDEX 01 03:25:35
  TRACK 113 AUDIO
    TITLE "2:cjc154_2517"
    INDEX 01 03:26:56
  TRACK 114 AUDIO
    TITLE "3:cjc154_2518"
    INDEX 01 03:28:44
  TRACK 115 AUDIO
    TITLE "2:cjc154_2519"
    INDEX 01 03:30:42
  TRACK 116 AUDIO
    TITLE "3:cjc154_2520"
    INDEX 01 03:31:71
  TRACK 117 AUDIO
    TITLE "2:cjc154_2521"
    INDEX 01 03:33:35
  TRACK 118 AUDIO
    TITLE "3:cjc154_2522"
    INDEX 01 03:35:24
  TRACK 119 AUDIO
    TITLE "2:cjc154_2523"
    INDEX 01 03:37:27
  TRACK 120 AUDIO
    TITLE "3:cjc154_2524"
    INDEX 01 03:38:54
  TRACK 121 AUDIO
    TITLE "2:cjc154_2525"
    INDEX 01 03:40:17
  TRACK 122 AUDIO
    TITLE "3:cjc154_2526"
    INDEX 01 03:41:56
  TRACK 123 AUDIO
    TITLE "2:cjc154_2527"
    INDEX 01 03:43:27
  TRACK 124 AUDIO
    TITLE "3:cjc154_2528"
    INDEX 01 03:45:22
  TRACK 125 AUDIO
    TITLE "2:cjc154_2529"
    INDEX 01 03:47:21
  TRACK 126 AUDIO
    TITLE "3:cjc154_2530"
    INDEX 01 03:49:56
  TRACK 127 AUDIO
    TITLE "2:cjc154_2531"
    INDEX 01 03:52:15
  TRACK 128 AUDIO
    TITLE "3:cjc154_2532"
    INDEX 01 03:54:33
  TRACK 129 AUDIO
    TITLE "2:cjc154_2533"
    INDEX 01 03:56:56
  TRACK 130 AUDIO
    TITLE "3:cjc154_2534"
    INDEX 01 03:58:25
  TRACK 131 AUDIO
    TITLE "2:cjc154_2535"
    INDEX 01 04:00:00
  TRACK 132 AUDIO
    TITLE "3:cjc154_2536"
    INDEX 01 04:01:55
  TRACK 133 AUDIO
    TITLE "2:cjc154_2537"
    INDEX 01 04:03:42
  TRACK 134 AUDIO
    TITLE "3:cjc154_2538"
    INDEX 01 04:05:41
  TRACK 135 AUDIO
    TITLE "2:cjc154_2539"
    INDEX 01 04:07:50
  TRACK 136 AUDIO
    TITLE "3:cjc154_2540"
    INDEX 01 04:09:15
  TRACK 137 AUDIO
    TITLE "2:cjc154_2541"
    INDEX 01 04:10:64
  TRACK 138 AUDIO
    TITLE "3:cjc154_2542"
    INDEX 01 04:12:41
  TRACK 139 AUDIO
    TITLE "2:cjc154_2543"
    INDEX 01 04:14:22
  TRACK 140 AUDIO
    TITLE "3:cjc154_2544"
    INDEX 01 04:15:59
  TRACK 141 AUDIO
    TITLE "2:cjc154_2545"
    INDEX 01 04:17:22
  TRACK 142 AUDIO
    TITLE "3:cjc154_2546"
    INDEX 01 04:19:04
  TRACK 143 AUDIO
    TITLE "2:cjc154_2547"
    INDEX 01 04:20:66
  TRACK 144 AUDIO
    TITLE "3:cjc154_2548"
    INDEX 01 04:22:14
  TRACK 145 AUDIO
    TITLE "2:cjc154_2549"
    INDEX 01 04:23:51
  TRACK 146 AUDIO
    TITLE "3:cjc154_2550"
    INDEX 01 04:25:51
  TRACK 147 AUDIO
    TITLE "2:cjc154_2551"
    INDEX 01 04:27:64
  TRACK 148 AUDIO
    TITLE "3:cjc154_2552"
    INDEX 01 04:29:26
  TRACK 149 AUDIO
    TITLE "2:cjc154_2553"
    INDEX 01 04:30:68
  TRACK 150 AUDIO
    TITLE "3:cjc154_2554"
    INDEX 01 04:33:06
  TRACK 151 AUDIO
    TITLE "2:cjc154_2555"
    INDEX 01 04:35:30
  TRACK 152 AUDIO
    TITLE "3:cjc154_2556"
    INDEX 01 04:37:47
  TRACK 153 AUDIO
    TITLE "2:cjc154_2557"
    INDEX 01 04:39:73
  TRACK 154 AUDIO
    TITLE "3:cjc154_2558"
    INDEX 01 04:42:17
  TRACK 155 AUDIO
    TITLE "2:cjc154_2559"
    INDEX 01 04:44:45
  TRACK 156 AUDIO
    TITLE "3:cjc154_2560"
    INDEX 01 04:46:14
  TRACK 157 AUDIO
    TITLE "2:cjc154_2561"
    INDEX 01 04:47:65
  TRACK 158 AUDIO
    TITLE "3:cjc154_2562"
    INDEX 01 04:49:09
  TRACK 159 AUDIO
    TITLE "2:cjc154_2563"
    INDEX 01 04:50:28
  TRACK 160 AUDIO
    TITLE "3:cjc154_2564"
    INDEX 01 04:52:36
  TRACK 161 AUDIO
    TITLE "2:cjc154_2565"
    INDEX 01 04:54:59
  TRACK 162 AUDIO
    TITLE "3:cjc154_2566"
    INDEX 01 04:56:21
  TRACK 163 AUDIO
    TITLE "2:cjc154_2567"
    INDEX 01 04:57:59
  TRACK 164 AUDIO
    TITLE "3:cjc154_2568"
    INDEX 01 04:59:44
  TRACK 165 AUDIO
    TITLE "2:cjc154_2569"
    INDEX 01 05:01:37
  TRACK 166 AUDIO
    TITLE "3:cjc154_2570"
    INDEX 01 05:02:53
  TRACK 167 AUDIO
    TITLE "2:cjc154_2571"
    INDEX 01 05:03:70
  TRACK 168 AUDIO
    TITLE "3:cjc154_2572"
    INDEX 01 05:05:59
  TRACK 169 AUDIO
    TITLE "2:cjc154_2573"
    INDEX 01 05:07:60
  TRACK 170 AUDIO
    TITLE "3:cjc154_2574"
    INDEX 01 05:09:74
  TRACK 171 AUDIO
    TITLE "2:cjc154_2575"
    INDEX 01 05:12:24
  TRACK 172 AUDIO
    TITLE "3:cjc154_2576"
    INDEX 01 05:13:27
  TRACK 173 AUDIO
    TITLE "2:cjc154_2577"
    INDEX 01 05:14:34
  TRACK 174 AUDIO
    TITLE "3:cjc154_2578"
    INDEX 01 05:16:27
  TRACK 175 AUDIO
    TITLE "2:cjc154_2579"
    INDEX 01 05:18:26
  TRACK 176 AUDIO
    TITLE "3:cjc154_2580"
    INDEX 01 05:20:29
  TRACK 177 AUDIO
    TITLE "2:cjc154_2581"
    INDEX 01 05:22:38
  TRACK 178 AUDIO
    TITLE "3:cjc154_2582"
    INDEX 01 05:24:09
  TRACK 179 AUDIO
    TITLE "2:cjc154_2583"
    INDEX 01 05:25:65
  TRACK 180 AUDIO
    TITLE "3:cjc154_2584"
    INDEX 01 05:27:60
  TRACK 181 AUDIO
    TITLE "2:cjc154_2585"
    INDEX 01 05:29:59
  TRACK 182 AUDIO
    TITLE "3:cjc154_2586"
    INDEX 01 05:32:48
  TRACK 183 AUDIO
    TITLE "2:cjc154_2587"
    INDEX 01 05:35:40
  TRACK 184 AUDIO
    TITLE "3:cjc154_2588"
    INDEX 01 05:36:61
  TRACK 185 AUDIO
    TITLE "2:cjc154_2589"
    INDEX 01 05:38:13
  TRACK 186 AUDIO
    TITLE "3:cjc154_2590"
    INDEX 01 05:40:08
  TRACK 187 AUDIO
    TITLE "2:cjc154_2591"
    INDEX 01 05:42:11
  TRACK 188 AUDIO
    TITLE "3:cjc154_2592"
    INDEX 01 05:44:27
  TRACK 189 AUDIO
    TITLE "2:cjc154_2593"
    INDEX 01 05:46:54
  TRACK 190 AUDIO
    TITLE "3:cjc154_2594"
    INDEX 01 05:48:59
  TRACK 191 AUDIO
    TITLE "2:cjc154_2595"
    INDEX 01 05:51:00
  TRACK 192 AUDIO
    TITLE "3:cjc154_2596"
    INDEX 01 05:53:03
  TRACK 193 AUDIO
    TITLE "2:cjc154_2597"
    INDEX 01 05:55:14
  TRACK 194 AUDIO
    TITLE "3:cjc154_2598"
    INDEX 01 05:56:31
  TRACK 195 AUDIO
    TITLE "2:cjc154_2599"
    INDEX 01 05:57:57
  TRACK 196 AUDIO
    TITLE "3:cjc154_2600"
    INDEX 01 05:59:51
  TRACK 197 AUDIO
    TITLE "2:cjc154_2601"
    INDEX 01 06:01:45
  TRACK 198 AUDIO
    TITLE "3:cjc154_2602"
    INDEX 01 06:03:35
  TRACK 199 AUDIO
    TITLE "2:cjc154_2603"
    INDEX 01 06:05:30
  TRACK 200 AUDIO
    TITLE "3:cjc154_2604"
    INDEX 01 06:07:40
  TRACK 201 AUDIO
    TITLE "2:cjc154_2605"
    INDEX 01 06:09:61
  TRACK 202 AUDIO
    TITLE "3:cjc154_2606"
    INDEX 01 06:11:67
  TRACK 203 AUDIO
    TITLE "2:cjc154_2607"
    INDEX 01 06:14:01
  TRACK 204 AUDIO
    TITLE "3:cjc154_2608"
    INDEX 01 06:15:42
  TRACK 205 AUDIO
    TITLE "2:cjc154_2609"
    INDEX 01 06:17:11
  TRACK 206 AUDIO
    TITLE "3:cjc154_2610"
    INDEX 01 06:18:71
  TRACK 207 AUDIO
    TITLE "2:cjc154_2611"
    INDEX 01 06:20:59
  TRACK 208 AUDIO
    TITLE "3:cjc154_2612"
    INDEX 01 06:22:71
  TRACK 209 AUDIO
    TITLE "2:cjc154_2613"
    INDEX 01 06:25:11
  TRACK 210 AUDIO
    TITLE "3:cjc154_2614"
    INDEX 01 06:26:67
  TRACK 211 AUDIO
    TITLE "2:cjc154_2615"
    INDEX 01 06:28:52
  TRACK 212 AUDIO
    TITLE "3:cjc154_2616"
    INDEX 01 06:31:64
  TRACK 213 AUDIO
    TITLE "2:cjc154_2617"
    INDEX 01 06:35:15
  TRACK 214 AUDIO
    TITLE "3:cjc154_2618"
    INDEX 01 06:36:56
  TRACK 215 AUDIO
    TITLE "2:cjc154_2619"
    INDEX 01 06:38:27
  TRACK 216 AUDIO
    TITLE "3:cjc154_2620"
    INDEX 01 06:40:18
  TRACK 217 AUDIO
    TITLE "2:cjc154_2621"
    INDEX 01 06:42:15
  TRACK 218 AUDIO
    TITLE "3:cjc154_2622"
    INDEX 01 06:43:69
  TRACK 219 AUDIO
    TITLE "2:cjc154_2623"
    INDEX 01 06:45:58
  TRACK 220 AUDIO
    TITLE "3:cjc154_2624"
    INDEX 01 06:46:62
  TRACK 221 AUDIO
    TITLE "2:cjc154_2625"
    INDEX 01 06:47:73
  TRACK 222 AUDIO
    TITLE "3:cjc154_2626"
    INDEX 01 06:50:07
  TRACK 223 AUDIO
    TITLE "2:cjc154_2627"
    INDEX 01 06:52:21
  TRACK 224 AUDIO
    TITLE "3:cjc154_2628"
    INDEX 01 06:54:03
  TRACK 225 AUDIO
    TITLE "2:cjc154_2629"
    INDEX 01 06:55:67
  TRACK 226 AUDIO
    TITLE "3:cjc154_2630"
    INDEX 01 06:58:40
  TRACK 227 AUDIO
    TITLE "2:cjc154_2631"
    INDEX 01 07:01:12
  TRACK 228 AUDIO
    TITLE "3:cjc154_2632"
    INDEX 01 07:02:55
  TRACK 229 AUDIO
    TITLE "2:cjc154_2633"
    INDEX 01 07:04:24
  TRACK 230 AUDIO
    TITLE "3:cjc154_2634"
    INDEX 01 07:05:73
  TRACK 231 AUDIO
    TITLE "2:cjc154_2635"
    INDEX 01 07:07:54
  TRACK 232 AUDIO
    TITLE "3:cjc154_2636"
    INDEX 01 07:08:67
  TRACK 233 AUDIO
    TITLE "2:cjc154_2637"
    INDEX 01 07:10:11
  TRACK 234 AUDIO
    TITLE "3:cjc154_2638"
    INDEX 01 07:12:00
  TRACK 235 AUDIO
    TITLE "2:cjc154_2639"
    INDEX 01 07:13:72
  TRACK 236 AUDIO
    TITLE "3:cjc154_2640"
    INDEX 01 07:15:07
  TRACK 237 AUDIO
    TITLE "2:cjc154_2641"
    INDEX 01 07:16:22
  TRACK 238 AUDIO
    TITLE "3:cjc154_2642"
    INDEX 01 07:17:17
  TRACK 239 AUDIO
    TITLE "2:cjc154_2643"
    INDEX 01 07:18:19
  TRACK 240 AUDIO
    TITLE "3:cjc154_2644"
    INDEX 01 07:20:22
  TRACK 241 AUDIO
    TITLE "2:cjc154_2645"
    INDEX 01 07:22:26
  TRACK 242 AUDIO
    TITLE "3:cjc154_2646"
    INDEX 01 07:23:55
  TRACK 243 AUDIO
    TITLE "2:cjc154_2647"
    INDEX 01 07:25:29
  TRACK 244 AUDIO
    TITLE "3:cjc154_2648"
    INDEX 01 07:27:22
  TRACK 245 AUDIO
    TITLE "2:cjc154_2649"
    INDEX 01 07:29:21
  TRACK 246 AUDIO
    TITLE "3:cjc154_2650"
    INDEX 01 07:30:45
  TRACK 247 AUDIO
    TITLE "2:cjc154_2651"
    INDEX 01 07:32:03
  TRACK 248 AUDIO
    TITLE "3:cjc154_2652"
    INDEX 01 07:34:59
  TRACK 249 AUDIO
    TITLE "2:cjc154_2653"
    INDEX 01 07:37:51
  TRACK 250 AUDIO
    TITLE "3:cjc154_2654"
    INDEX 01 07:38:63
  TRACK 251 AUDIO
    TITLE "2:cjc154_2655"
    INDEX 01 07:39:64
  TRACK 252 AUDIO
    TITLE "3:cjc154_2656"
    INDEX 01 07:41:02
  TRACK 253 AUDIO
    TITLE "2:cjc154_2657"
    INDEX 01 07:42:21
  TRACK 254 AUDIO
    TITLE "3:cjc154_2658"
    INDEX 01 07:44:12
  TRACK 255 AUDIO
    TITLE "2:cjc154_2659"
    INDEX 01 07:46:11
  TRACK 256 AUDIO
    TITLE "3:cjc154_2660"
    INDEX 01 07:48:02
  TRACK 257 AUDIO
    TITLE "2:cjc154_2661"
    INDEX 01 07:50:23
  TRACK 258 AUDIO
    TITLE "3:cjc154_2662"
    INDEX 01 07:51:50
  TRACK 259 AUDIO
    TITLE "2:cjc154_2663"
    INDEX 01 07:52:72
  TRACK 260 AUDIO
    TITLE "3:cjc154_2664"
    INDEX 01 07:55:61
  TRACK 261 AUDIO
    TITLE "2:cjc154_2665"
    INDEX 01 07:58:50
  TRACK 262 AUDIO
    TITLE "3:cjc154_2666"
    INDEX 01 08:00:05
  TRACK 263 AUDIO
    TITLE "2:cjc154_2667"
    INDEX 01 08:01:42
  TRACK 264 AUDIO
    TITLE "3:cjc154_2668"
    INDEX 01 08:05:09
  TRACK 265 AUDIO
    TITLE "0:"
    INDEX 01 08:08:54
